#N canvas 69 58 1273 797 10;
#X obj 45 253 adc~ 1 2, f 11;
#X obj 143 282 *~;
#X obj 143 241 osc~ 330;
#X obj 143 111 adc~ 6 7, f 13;
#X obj 219 266 lop~ 10;
#X obj 143 192 * 127;
#X obj 143 213 mtof;
#X obj 233 213 print ADC 7:;
#X obj 46 222 print ADC 6:;
#X obj 45 317 dac~ 1 27, f 11;
#X obj 640 91 +~;
#X obj 574 12 adc~ 3 4 5, f 13;
#X obj 451 74 bng 16 250 50 0 empty empty empty 0 -8 0 10 #fcfcfc #000000 #000000;
#X obj 612 138 threshold~ 1 100 0.1 100;
#X obj 612 157 bng 16 250 50 0 empty empty empty 0 -8 0 10 #fcfcfc #000000 #000000;
#X obj 742 54 bng 16 250 50 0 empty empty empty 0 -8 0 10 #fcfcfc #000000 #000000;
#X obj 451 92 print ADC 3:;
#X obj 233 193 change;
#X obj 233 176 int;
#X obj 46 202 change;
#X obj 46 182 int;
#X obj 233 137 unsig~ 10;
#X obj 143 136 unsig~ 10;
#X obj 46 161 * 100;
#X obj 233 155 * 100;
#X obj 451 56 threshold~ 0.3 100 0.1 100;
#X obj 742 34 threshold~ 0.3 100 0.1 100;
#X obj 612 180 print ADC 4:;
#X obj 742 72 print ADC 5:;
#X text 65 33 ADC 3-5 (An In 0-3 ) => Control oscillator on Out R;
#X text 10 14 Stereo IN 1-2 => Out L & Oscilloscope;
#X text 11 56 ADC 6-7 (pots \, An in 4-5) => Control oscillator on Out R;
#X obj 620 113 dac~ 2 28;
#X obj 361 163 adc~ 6 7;
#X obj 355 184 dac~ 29 30;
#X obj 460 233 s bela_setDht;
#X obj 460 181 loadbang;
#X obj 460 267 r bela_dht;
#X obj 460 290 print DHT11;
#X msg 460 205 6;
#X connect 0 0 9 0;
#X connect 0 0 9 1;
#X connect 0 1 9 0;
#X connect 0 1 9 1;
#X connect 1 0 9 0;
#X connect 2 0 1 0;
#X connect 3 0 22 0;
#X connect 3 1 4 0;
#X connect 3 1 21 0;
#X connect 4 0 1 1;
#X connect 5 0 6 0;
#X connect 6 0 2 0;
#X connect 10 0 32 0;
#X connect 10 0 32 1;
#X connect 11 0 10 0;
#X connect 11 0 25 0;
#X connect 11 1 10 1;
#X connect 11 1 13 0;
#X connect 11 2 10 1;
#X connect 11 2 26 0;
#X connect 12 0 16 0;
#X connect 13 0 14 0;
#X connect 14 0 27 0;
#X connect 15 0 28 0;
#X connect 17 0 7 0;
#X connect 18 0 17 0;
#X connect 19 0 8 0;
#X connect 20 0 19 0;
#X connect 21 0 24 0;
#X connect 22 0 23 0;
#X connect 22 0 5 0;
#X connect 23 0 20 0;
#X connect 24 0 18 0;
#X connect 25 0 12 0;
#X connect 26 0 15 0;
#X connect 33 0 34 0;
#X connect 33 1 34 1;
#X connect 36 0 39 0;
#X connect 37 0 38 0;
#X connect 39 0 35 0;
