#N canvas 296 130 1111 897 12;
#X obj 24 26 loadbang;
#X obj 24 75 s bela_setDigital;
#X obj 462 368 s bela_digitalOut17;
#X obj 462 169 r bela_digitalIn11;
#X obj 462 199 tgl 19 0 empty empty empty 0 -10 0 12 #fcfcfc #000000 #000000 0 1;
#X msg 24 50 out 17 \, out 18 \, out 21 \, in 11 \, in 12 \, in 13 \, in 14;
#X obj 607 199 tgl 19 0 empty empty empty 0 -10 0 12 #fcfcfc #000000 #000000 0 1;
#X obj 607 169 r bela_digitalIn12;
#X obj 606 368 s bela_digitalOut18;
#X obj 748 196 tgl 19 0 empty empty empty 0 -10 0 12 #fcfcfc #000000 #000000 0 1;
#X obj 747 368 s bela_digitalOut21;
#X obj 748 168 r bela_digitalIn13;
#X obj 889 198 tgl 19 0 empty empty empty 0 -10 0 12 #fcfcfc #000000 #000000 0 1;
#X obj 889 168 r bela_digitalIn14;
#X obj 462 223 s ButtonA;
#X obj 607 223 s ButtonB;
#X obj 748 221 s ButtonC;
#X obj 889 222 s ButtonD;
#X obj 462 320 r GreenLed;
#X obj 462 344 tgl 19 0 empty empty empty 0 -10 0 12 #fcfcfc #000000 #000000 0 1;
#X obj 606 345 tgl 19 0 empty empty empty 0 -10 0 12 #fcfcfc #000000 #000000 0 1;
#X obj 747 345 tgl 19 0 empty empty empty 0 -10 0 12 #fcfcfc #000000 #000000 0 1;
#X obj 606 321 r YellowLed;
#X obj 747 321 r RedLed;
#X connect 0 0 5 0;
#X connect 3 0 4 0;
#X connect 4 0 14 0;
#X connect 5 0 1 0;
#X connect 6 0 15 0;
#X connect 7 0 6 0;
#X connect 9 0 16 0;
#X connect 11 0 9 0;
#X connect 12 0 17 0;
#X connect 13 0 12 0;
#X connect 18 0 19 0;
#X connect 19 0 2 0;
#X connect 20 0 8 0;
#X connect 21 0 10 0;
#X connect 22 0 20 0;
#X connect 23 0 21 0;
