#N canvas 115 25 710 912 12;
#X obj 17 64 soundfiler;
#X obj 17 12 loadbang;
#X obj 17 88 s sampleLength1;
#N canvas 696 25 1040 890 (subpatch) 0;
#X array sample-1 201388 float 2;
#X coords 0 1 201388 -1 200 140 1 0 0;
#X restore 11 730 graph;
#X obj 8 634 *~ 0.2;
#X obj 8 541 *~;
#X obj 14 166 map~ -2 2;
#X text 10 123 playback speed;
#X obj 914 172 select 1 0;
#X msg 953 264 stop;
#X obj 747 155 adc~ 1;
#X obj 957 304 timer 1 sample;
#X obj 904 415 print recording;
#X msg 904 264 start;
#X obj 747 347 tabwrite~ sample-1;
#X obj 957 330 s sampleLength1;
#X msg 17 36 read -resize greek-rumba.wav sample-1;
#X obj 8 582 tabread4~ sample-1;
#X obj 799 209 dac~ 28;
#X obj 8 673 dac~ 1 2 3;
#X obj 75 616 env~;
#X obj 75 640 * 0.01;
#X obj 914 60 sel 1;
#X obj 914 82 f;
#X obj 914 103 + 1;
#X floatatom 914 125 5 0 0 0 - - - 0;
#X obj 914 147 mod 2;
#X obj 1062 200 s RedLed;
#X obj 1062 145 metro 500;
#X obj 1062 122 tgl 19 0 empty empty empty 0 -10 0 12 #fcfcfc #000000 #000000 0 1;
#X obj 1062 169 tgl 19 0 empty empty empty 0 -10 0 12 #fcfcfc #000000 #000000 0 1;
#X msg 1019 136 0;
#X obj 349 122 r ButtonA;
#X obj 914 36 r ButtonB;
#X obj 350 146 sel 1;
#X obj 362 174 f;
#X obj 362 195 + 1;
#X floatatom 362 217 5 0 0 0 - - - 0;
#X obj 362 239 mod 2;
#X msg 275 165 0;
#X obj 207 283 r sampleLength1;
#X floatatom 207 306 19 0 0 0 - - - 0;
#X obj 180 497 expr 44100/$f1;
#X obj 14 143 adc~ 3 4;
#X obj 275 186 s restart;
#X obj 362 262 s onOff;
#X text 149 146 loop length;
#X text 270 145 pback ctrl;
#X obj 14 188 send~ playbackSpeed;
#X obj 8 373 r~ playbackSpeed;
#X obj 8 401 *~;
#X obj 514 361 r sampleLength1;
#X obj 514 391 expr 44100/$f1;
#X obj 108 282 r loopLength;
#X obj 153 191 unsig~;
#X obj 153 215 send loopLength, f 17;
#X obj 155 166 map~ 0.1 1.1;
#X obj 100 531 unsig~;
#X obj 7 460 phasor~ -2;
#X obj 238 385 *;
#X obj 199 443 -;
#X floatatom 248 329 5 0 0 0 - - - 0;
#X floatatom 224 466 15 0 0 0 - - - 0;
#X obj 249 356 t b f;
#X obj 217 413 t b f;
#X connect 0 0 2 0;
#X connect 1 0 16 0;
#X connect 4 0 19 0;
#X connect 4 0 19 1;
#X connect 5 0 17 0;
#X connect 6 0 48 0;
#X connect 8 0 11 0;
#X connect 8 0 13 0;
#X connect 8 0 14 0;
#X connect 8 1 9 0;
#X connect 8 1 11 1;
#X connect 9 0 14 0;
#X connect 9 0 12 0;
#X connect 10 0 14 0;
#X connect 10 0 18 0;
#X connect 11 0 15 0;
#X connect 13 0 12 0;
#X connect 16 0 0 0;
#X connect 17 0 4 0;
#X connect 17 0 20 0;
#X connect 20 0 21 0;
#X connect 21 0 19 2;
#X connect 22 0 23 0;
#X connect 23 0 24 0;
#X connect 24 0 25 0;
#X connect 24 0 23 1;
#X connect 25 0 26 0;
#X connect 26 0 8 0;
#X connect 26 0 29 0;
#X connect 28 0 30 0;
#X connect 29 0 28 0;
#X connect 30 0 27 0;
#X connect 31 0 30 0;
#X connect 32 0 34 0;
#X connect 33 0 22 0;
#X connect 33 0 31 0;
#X connect 34 0 35 0;
#X connect 34 0 39 0;
#X connect 35 0 36 0;
#X connect 36 0 37 0;
#X connect 36 0 35 1;
#X connect 37 0 38 0;
#X connect 38 0 45 0;
#X connect 39 0 44 0;
#X connect 40 0 41 0;
#X connect 41 0 59 0;
#X connect 41 0 60 0;
#X connect 42 0 50 1;
#X connect 43 0 6 0;
#X connect 43 1 56 0;
#X connect 49 0 50 0;
#X connect 50 0 58 0;
#X connect 51 0 52 0;
#X connect 53 0 63 0;
#X connect 54 0 55 0;
#X connect 56 0 54 0;
#X connect 58 0 5 0;
#X connect 58 0 57 0;
#X connect 59 0 64 0;
#X connect 60 0 42 0;
#X connect 60 0 5 1;
#X connect 60 0 62 0;
#X connect 61 0 63 0;
#X connect 63 0 59 0;
#X connect 63 1 59 1;
#X connect 64 0 60 0;
#X connect 64 1 60 1;
