#N canvas -4 75 686 847 10;
#X obj 19 43 s~ channel1;
#X obj 91 43 s~ channel2;
#X obj 19 282 r~ channel1;
#X obj 19 300 delay-manglar 1;
#X obj 118 281 r~ channel2;
#X obj 118 300 delay-manglar 2;
#X obj 589 44 presets;
#X obj 589 86 nbx 5 14 0 1 0 1 timbre timbre Timbre 0 -8 0 10 #fcfcfc #000000 #000000 1 256;
#X obj 645 86 nbx 5 14 0 2 0 1 gain gain Gain 0 -8 0 10 #fcfcfc #000000 #000000 1 256;
#X obj 701 87 nbx 5 14 0 1 0 1 volume volume Volume 0 -8 0 10 #fcfcfc #000000 #000000 0 256;
#X obj 14 242 s~ channel3;
#X obj 88 193 s~ channel4;
#X text 88 19 Audio L & R;
#X obj 220 281 r~ channel3;
#X obj 319 282 r~ channel4;
#X obj 220 304 delay-manglar 3;
#X obj 319 305 delay-manglar 4;
#X obj 311 44 s~ channel5;
#X text 16 264 Uñas;
#X text 116 262 Canalete;
#X text 218 261 Cucaracha;
#X text 317 264 Pinza;
#X obj 19 319 +~, f 17;
#X obj 19 394 dac~ 1;
#X obj 220 402 dac~ 2;
#X obj 402 19 adc~ 6 7, f 13;
#X obj 402 37 lop~ 10;
#X obj 477 37 lop~ 10;
#X obj 402 55 s~ feedback;
#X obj 477 56 s~ delayTime;
#X text 84 118 Analog In 0 - 1;
#X text 309 63 Analog In 2;
#X text 420 74 Analog In 3 - 4;
#X obj 34 335 r~ channel5;
#X obj 236 341 r~ channel5;
#X obj 220 359 +~;
#X obj 19 355 +~;
#X obj 46 357 r~ volume;
#X obj 247 362 r~ volume;
#X obj 701 104 r volume;
#X obj 701 125 sig~;
#X obj 701 146 s~ volume;
#X obj 220 324 +~, f 17;
#N canvas 611 286 819 549 pepper 0;
#X obj 106 99 dac~ 27 28;
#X obj 1 8 r~ channel1;
#X obj 75 8 r~ channel2;
#X obj 32 183 lop~ 10;
#X obj 150 9 r~ channel3;
#X obj 222 9 r~ channel4;
#X obj 117 183 lop~ 10;
#X obj 32 203 unsig~ 10;
#X obj 34 238 s timbre;
#X obj 117 204 unsig~;
#X obj 117 239 s gain;
#X obj 32 165 adc~ 9;
#X obj 118 165 adc~ 0;
#X connect 1 0 0 0;
#X connect 2 0 0 0;
#X connect 3 0 7 0;
#X connect 4 0 0 1;
#X connect 5 0 0 1;
#X connect 6 0 9 0;
#X connect 11 0 3 0;
#X connect 12 0 6 0;
#X restore 589 25 pd pepper;
#X obj 19 375 *~, f 5;
#X obj 220 383 *~, f 5;
#X obj 34 21 adc~ 1 2;
#X text 69 136 gain for analog in as audio;
#X obj 15 117 adc~ 3 4;
#X obj 233 169 r~ channel3;
#X obj 232 218 dac~ 1;
#X obj 13 184 *~ 2;
#X obj 45 175 *~ 2;
#X obj 29 208 -~ -0.5;
#X obj 91 167 -~ -0.5;
#X obj 437 180 s bela_setDht;
#X obj 437 128 loadbang;
#X obj 437 214 r bela_dht;
#X obj 437 237 print DHT11;
#X text 464 152 Bela Digital Channel for sensor;
#X msg 437 152 6;
#X connect 2 0 3 0;
#X connect 3 0 22 0;
#X connect 4 0 5 0;
#X connect 5 0 22 1;
#X connect 13 0 15 0;
#X connect 14 0 16 0;
#X connect 15 0 42 0;
#X connect 16 0 42 1;
#X connect 22 0 36 0;
#X connect 25 0 26 0;
#X connect 25 1 27 0;
#X connect 26 0 28 0;
#X connect 27 0 29 0;
#X connect 35 0 45 0;
#X connect 36 0 44 0;
#X connect 37 0 44 1;
#X connect 38 0 45 1;
#X connect 39 0 40 0;
#X connect 40 0 41 0;
#X connect 42 0 35 0;
#X connect 44 0 23 0;
#X connect 45 0 24 0;
#X connect 46 0 0 0;
#X connect 46 1 1 0;
#X connect 48 0 51 0;
#X connect 48 1 52 1;
#X connect 49 0 50 0;
#X connect 51 0 53 0;
#X connect 52 0 54 0;
#X connect 53 0 10 0;
#X connect 54 0 11 0;
#X connect 56 0 60 0;
#X connect 57 0 58 0;
#X connect 60 0 55 0;
