#N canvas -600 25 1836 688 10;
#X declare -lib bob~;
#X declare -lib cyclone;
#X obj 55 592 *~ 0.2;
#X obj 48 634 dac~ 1 2;
#X obj 55 525 +~;
#X obj 107 315 lop~ 10;
#X obj 264 337 lop~ 10;
#X obj 71 493 *~;
#X text 81 680 delay effect;
#X text 81 699 controls for delay time and feedback;
#X obj 107 368 delread4~ mydelay;
#X obj 85 566 delwrite~ mydelay 1000;
#X obj 41 5 adc~ 1 2;
#X obj 207 23 dac~ 27 28;
#X obj 57 223 +~;
#X obj 41 25 s~ channel1;
#X obj 113 25 s~ channel2;
#X obj 199 5 r~ channel1;
#X obj 277 6 r~ channel2;
#X obj 377 254 threshold~ 0.9 200;
#X obj 146 191 threshold~ 0.9 200;
#X obj 146 272 print random2;
#X obj 377 329 * 0.01;
#X obj 254 417 +~;
#X obj 57 151 r~ channel1;
#X obj 146 251 random 400;
#X obj 441 144 clip~ -2 0;
#X obj 441 182 s~ cv1;
#X obj 441 69 map~ -2.01 2.81;
#X obj 441 163 +~ 2;
#X obj 107 294 r~ cv1;
#X obj 790 152 clip~ 0 2;
#X obj 684 77 map~ -2.01 2.81;
#X obj 684 57 lop~ 10;
#X obj 146 230 spigot;
#X obj 447 107 tgl 16 0 empty empty empty 0 -8 0 10 #fcfcfc #000000 #000000 0 1;
#X obj 447 89 threshold~ 2 100 1.9 100;
#X obj 690 116 tgl 16 0 empty empty empty 0 -8 0 10 #fcfcfc #000000 #000000 0 1;
#X obj 690 96 threshold~ 2 100 1.9 100;
#X obj 447 125 s randTime;
#X obj 179 210 r randTime;
#X obj 684 37 adc~ 4;
#X obj 690 135 s randFeedback;
#X obj 441 35 lop~ 10;
#X obj 441 15 adc~ 3;
#X obj 684 191 s~ cv3;
#X obj 790 170 s~ cv4;
#X obj 264 316 r~ cv3;
#X obj 377 230 r~ channel2;
#X obj 377 292 spigot;
#X obj 410 272 r randFeedback;
#X obj 72 170 r~ channel2;
#X obj 107 346 *~ 1000;
#X obj 499 107 s randTimeReset;
#X obj 736 117 s randFeedbackReset;
#X obj 157 293 r randTimeReset;
#X msg 157 311 1000;
#X obj 388 41 sig~;
#X floatatom 386 19 5 0 1 0 - - - 0;
#X obj 381 351 r randFeedbackReset;
#X msg 301 380 0;
#X obj 684 171 +~ 0.8;
#X obj 684 153 clip~ -1.85 -0.1;
#X obj 279 358 clip 0 0.5;
#X obj 377 310 random 40;
#X obj 509 185 s~ cv2;
#X obj 41 43 declare -lib bob~;
#X obj 138 390 r~ cv2;
#X obj 107 431 bob~ 5000 2;
#X obj 51 53 declare -lib cyclone;
#X obj 509 164 cyclone/scale~ -2 2 5000 60;
#X obj 570 542 r~ channel1;
#X obj 619 605 delay-manglar 1;
#X obj 619 640 dac~ 1;
#X obj 738 637 dac~ 2;
#X obj 740 584 r~ channel2;
#X obj 740 610 delay-manglar 2;
#X obj 614 359 presets;
#X obj 604 418 nbx 5 14 0 1 0 0 timbre timbre Timbre 0 -8 0 10 #fcfcfc #000000 #000000 0 256;
#X obj 660 419 nbx 5 14 0 1 0 0 gain gain Gain 0 -8 0 10 #fcfcfc #000000 #000000 0 256;
#X obj 717 419 nbx 5 14 0 1 0 0 volume volume Volume 0 -8 0 10 #fcfcfc #000000 #000000 0 256;
#X floatatom 659 535 5 0 1 0 - - - 0;
#X obj 659 555 sig~;
#X floatatom 708 533 5 0 1 0 - - - 0;
#X obj 708 553 sig~;
#X obj 540 591 adc~ 3;
#X floatatom 818 555 5 0 1 0 - - - 0;
#X obj 818 575 sig~;
#X floatatom 867 553 5 0 1 0 - - - 0;
#X obj 867 573 sig~;
#X obj 758 552 adc~ 4;
#X connect 2 0 0 0;
#X connect 2 0 9 0;
#X connect 3 0 50 0;
#X connect 4 0 21 0;
#X connect 5 0 2 1;
#X connect 8 0 66 0;
#X connect 10 0 13 0;
#X connect 10 1 14 0;
#X connect 12 0 2 0;
#X connect 15 0 11 0;
#X connect 16 0 11 1;
#X connect 17 0 47 0;
#X connect 18 0 32 0;
#X connect 20 0 61 0;
#X connect 21 0 5 1;
#X connect 22 0 12 0;
#X connect 22 0 18 0;
#X connect 23 0 19 0;
#X connect 23 0 50 1;
#X connect 24 0 27 0;
#X connect 26 0 24 0;
#X connect 26 0 34 0;
#X connect 26 0 68 0;
#X connect 27 0 25 0;
#X connect 28 0 3 0;
#X connect 29 0 44 0;
#X connect 30 0 29 0;
#X connect 30 0 36 0;
#X connect 30 0 60 0;
#X connect 31 0 30 0;
#X connect 32 0 23 0;
#X connect 33 0 37 0;
#X connect 34 0 33 0;
#X connect 34 1 33 0;
#X connect 34 1 51 0;
#X connect 35 0 40 0;
#X connect 36 0 35 0;
#X connect 36 1 35 0;
#X connect 36 1 52 0;
#X connect 38 0 32 1;
#X connect 39 0 31 0;
#X connect 41 0 26 0;
#X connect 42 0 41 0;
#X connect 45 0 4 0;
#X connect 46 0 17 0;
#X connect 47 0 62 0;
#X connect 48 0 47 1;
#X connect 49 0 12 1;
#X connect 50 0 8 0;
#X connect 53 0 54 0;
#X connect 54 0 50 1;
#X connect 56 0 55 0;
#X connect 57 0 58 0;
#X connect 58 0 21 1;
#X connect 59 0 43 0;
#X connect 60 0 59 0;
#X connect 61 0 21 1;
#X connect 62 0 20 0;
#X connect 65 0 66 1;
#X connect 66 0 5 0;
#X connect 68 0 63 0;
#X connect 69 0 70 0;
#X connect 70 0 71 0;
#X connect 73 0 74 0;
#X connect 74 0 72 0;
#X connect 79 0 80 0;
#X connect 80 0 70 1;
#X connect 81 0 82 0;
#X connect 82 0 70 2;
#X connect 83 0 70 0;
#X connect 84 0 85 0;
#X connect 85 0 74 1;
#X connect 86 0 87 0;
#X connect 87 0 74 2;
#X connect 88 0 74 0;
