#N canvas 1239 260 681 512 12;
#X obj 35 7 inlet~;
#X obj 86 7 r gain;
#X obj 109 40 r timbre;
#X obj 56 148 vcf~ 5;
#X obj 110 130 sig~ 200;
#X obj 35 454 outlet~;
#X floatatom 109 62 5 0 0 0 - - - 0;
#X obj 109 105 mtof;
#X obj 109 83 * 150;
#X text 174 41 Sets timbre with Params on load;
#X obj 35 415 +~;
#X floatatom 74 217 5 0 0 0 - - - 0;
#X obj 56 334 +~;
#X obj 74 308 *~;
#X floatatom 103 309 5 0 0 0 - - - 0;
#X obj 144 321 unsig~ 10;
#X obj 74 194 unsig~ 10;
#X obj 74 274 delread~ \$1-del;
#X obj 56 359 delwrite~ \$1-del 1000;
#X obj 74 245 * 10000;
#X obj 36 53 *~;
#X obj 74 170 r~ delayTime;
#X obj 144 297 r~ feedback;
#X connect 0 0 20 0;
#X connect 1 0 20 1;
#X connect 2 0 6 0;
#X connect 3 0 12 0;
#X connect 4 0 3 1;
#X connect 6 0 8 0;
#X connect 7 0 4 0;
#X connect 8 0 7 0;
#X connect 10 0 5 0;
#X connect 11 0 19 0;
#X connect 12 0 18 0;
#X connect 13 0 12 1;
#X connect 14 0 13 1;
#X connect 15 0 14 0;
#X connect 16 0 11 0;
#X connect 17 0 10 1;
#X connect 17 0 13 0;
#X connect 19 0 17 0;
#X connect 20 0 3 0;
#X connect 20 0 10 0;
#X connect 21 0 16 0;
#X connect 22 0 15 0;
