#N canvas 71 115 910 757 12;
#X obj 24 26 loadbang;
#X obj 24 75 s bela_setDigital;
#X obj 540 506 s bela_digitalOut17;
#X obj 462 169 r bela_digitalIn11;
#X obj 462 199 tgl 19 0 empty empty empty 0 -10 0 12 #fcfcfc #000000 #000000 0 1;
#X msg 24 50 out 17 \, out 18 \, out 21 \, in 11 \, in 12 \, in 13 \, in 14;
#X obj 607 199 tgl 19 0 empty empty empty 0 -10 0 12 #fcfcfc #000000 #000000 0 1;
#X obj 607 169 r bela_digitalIn12;
#X obj 684 506 s bela_digitalOut18;
#X obj 748 196 tgl 19 0 empty empty empty 0 -10 0 12 #fcfcfc #000000 #000000 0 1;
#X obj 825 506 s bela_digitalOut21;
#X obj 748 168 r bela_digitalIn13;
#X obj 889 198 tgl 19 0 empty empty empty 0 -10 0 12 #fcfcfc #000000 #000000 0 1;
#X obj 889 168 r bela_digitalIn14;
#X obj 462 223 s ButtonA;
#X obj 607 223 s ButtonB;
#X obj 748 221 s ButtonC;
#X obj 889 222 s ButtonD;
#X obj 540 458 r GreenLed;
#X obj 540 482 tgl 19 0 empty empty empty 0 -10 0 12 #fcfcfc #000000 #000000 0 1;
#X obj 684 483 tgl 19 0 empty empty empty 0 -10 0 12 #fcfcfc #000000 #000000 0 1;
#X obj 825 483 tgl 19 0 empty empty empty 0 -10 0 12 #fcfcfc #000000 #000000 0 1;
#X obj 684 459 r YellowLed;
#X obj 825 459 r RedLed;
#X obj 674 436 r ButtonB;
#X obj 813 437 r ButtonC;
#X obj 747 407 r ButtonD;
#X obj 462 269 print ButtonA;
#X obj 519 437 r ButtonA;
#X obj 462 247 r ButtonA;
#X obj 607 245 r ButtonB;
#X obj 607 267 print ButtonB;
#X obj 748 243 r ButtonC;
#X obj 748 265 print ButtonC;
#X obj 889 243 r ButtonD;
#X obj 889 265 print ButtonD;
#X obj 172 326 adc~ 3 4;
#X obj 151 452 dac~ 3 4 27 28;
#X obj 209 541 adc~ 1 2;
#X obj 202 564 dac~ 29 30;
#X connect 0 0 5 0;
#X connect 3 0 4 0;
#X connect 4 0 14 0;
#X connect 5 0 1 0;
#X connect 6 0 15 0;
#X connect 7 0 6 0;
#X connect 9 0 16 0;
#X connect 11 0 9 0;
#X connect 12 0 17 0;
#X connect 13 0 12 0;
#X connect 18 0 19 0;
#X connect 19 0 2 0;
#X connect 20 0 8 0;
#X connect 21 0 10 0;
#X connect 22 0 20 0;
#X connect 23 0 21 0;
#X connect 24 0 20 0;
#X connect 25 0 21 0;
#X connect 26 0 20 0;
#X connect 26 0 21 0;
#X connect 28 0 19 0;
#X connect 29 0 27 0;
#X connect 30 0 31 0;
#X connect 32 0 33 0;
#X connect 34 0 35 0;
#X connect 36 0 37 0;
#X connect 36 0 37 2;
#X connect 36 1 37 3;
#X connect 36 1 37 1;
#X connect 38 0 39 0;
#X connect 38 1 39 1;
